<svg viewBox="0 0 84 84" fill="none" xmlns="http://www.w3.org/2000/svg">
	<path d="M56.5058 39.7925L36.2759 27.811C35.3564 27.212 34.092 27.212 33.0575 27.6114C31.9081 28.1106 31.3334 29.109 31.3334 30.1075V53.9705C31.3334 54.969 32.023 55.8676 33.0575 56.3668C33.5173 56.5665 33.9771 56.6663 34.5518 56.6663C35.1265 56.6663 35.8161 56.4666 36.2759 56.1671L56.6207 44.1857C57.5403 43.6864 58 42.7878 58 41.8892C58 40.9906 57.4253 40.2917 56.5058 39.7925Z" fill="#ffffff"/>
	<path fill-rule="evenodd" clip-rule="evenodd" d="M4.66667 42C4.66667 62.6186 21.3814 79.3333 42 79.3333C62.6186 79.3333 79.3333 62.6186 79.3333 42C79.3333 21.3814 62.6186 4.66667 42 4.66667C21.3814 4.66667 4.66667 21.3814 4.66667 42ZM42 0C18.804 0 0 18.804 0 42C0 65.196 18.804 84 42 84C65.196 84 84 65.196 84 42C84 18.804 65.196 0 42 0Z" fill="#ffffff"/>
</svg>